<?xml version="1.0" encoding="UTF-8" standalone="no"?>
<svg
   viewBox="0 0 128 128"
   width="128"
   height="128"
   version="1.1"
   id="svg4"
   xmlns="http://www.w3.org/2000/svg"
   xmlns:svg="http://www.w3.org/2000/svg">
  <defs
     id="defs4" />
  <svg
     x="8"
     y="8"
     width="112"
     height="112"
     viewBox="0 0 200 240"
     preserveAspectRatio="xMidYMid meet"
     version="1.1"
     id="svg3">
    <g
       id="g4"
       transform="matrix(1.4693861,0,0,1.4693861,-46.93861,-52.652867)">
      <path
         d="M 30,40 Q 30,25 45,25 h 110 q 15,0 15,15 v 80 c 0,30 -20,60 -70,90 C 50,180 30,150 30,120 Z"
         fill="#000000"
         id="path1" />
      <path
         d="M 36,42 Q 36,31 47,31 h 106 q 11,0 11,11 v 76 c 0,28 -18,56 -64,85 C 54,174 36,146 36,118 Z"
         fill="#ffffff"
         id="path2" />
      <path
         d="m 36,115 h 128 v 3 c 0,28 -18,56 -64,85 C 54,174 36,146 36,118 Z"
         fill="#dc143c"
         id="path3" />
      <circle
         cx="100"
         cy="115"
         r="30"
         fill="#2b2b2b"
         id="circle3" />
      <rect
         x="80"
         y="110"
         width="40"
         height="10"
         rx="5"
         fill="#ffffff"
         id="rect3" />
    </g>
  </svg>
</svg>
